<svg width="89" height="83" viewBox="0 0 89 83" fill="none" xmlns="http://www.w3.org/2000/svg">
<mask id="mask0_202_328" style="mask-type:alpha" maskUnits="userSpaceOnUse" x="0" y="0" width="89" height="83">
<rect width="89" height="83" fill="#D9D9D9"/>
</mask>
<g mask="url(#mask0_202_328)">
<path fill-rule="evenodd" clip-rule="evenodd" d="M59.2964 83.8527H89.1109L81.8442 70.9551L66.5631 70.9551L59.2964 83.8527ZM57.6458 83.9999L65.2863 70.4388L57.6458 56.8776H42.3647L34.7242 70.4388L42.3647 83.9999H57.6458ZM65.096 41.9264L57.4555 55.4876H42.1744L34.5339 41.9264L42.1744 28.3653L57.4555 28.3653L65.096 41.9264ZM40.9957 56.2432L33.3552 69.8044H18.0741L10.4336 56.2432L18.0741 42.6821L33.3552 42.6821L40.9957 56.2432ZM17.8676 70.9551L10.6008 83.8528H40.4153L33.1486 70.9551H17.8676ZM40.9083 27.6095L33.2678 41.1706L17.9867 41.1706L10.3462 27.6095L17.9867 14.0483L33.2678 14.0483L40.9083 27.6095ZM-6.28833 27.1223V27.1254H-7.68541L-16.0245 41.9264L-7.68541 56.7275H-6.28833V56.7306H8.99273L16.6333 70.2917L8.99273 83.8528H-6.28833L-6.29108 83.848H-31L-31 0H-6.28833H8.99273L16.6333 13.5611L8.99273 27.1223H-6.28833Z" fill="white"/>
</g>
</svg>
