<svg width="120" height="83" viewBox="0 0 120 83" fill="none" xmlns="http://www.w3.org/2000/svg">
<mask id="mask0_202_327" style="mask-type:alpha" maskUnits="userSpaceOnUse" x="0" y="0" width="120" height="83">
<rect width="120" height="83" fill="#D9D9D9"/>
</mask>
<g mask="url(#mask0_202_327)">
<path fill-rule="evenodd" clip-rule="evenodd" d="M90.2964 83.8527H120.111L112.844 70.9551L97.5631 70.9551L90.2964 83.8527ZM88.6458 83.9999L96.2863 70.4388L88.6458 56.8776H73.3647L65.7242 70.4388L73.3647 83.9999H88.6458ZM96.096 41.9264L88.4555 55.4876H73.1744L65.5339 41.9264L73.1744 28.3653L88.4555 28.3653L96.096 41.9264ZM71.9957 56.2432L64.3552 69.8044H49.0741L41.4336 56.2432L49.0741 42.6821L64.3552 42.6821L71.9957 56.2432ZM48.8676 70.9551L41.6008 83.8528H71.4153L64.1486 70.9551H48.8676ZM71.9083 27.6095L64.2678 41.1706L48.9867 41.1706L41.3462 27.6095L48.9867 14.0483L64.2678 14.0483L71.9083 27.6095ZM24.7117 27.1223V27.1254H23.3146L14.9755 41.9264L23.3146 56.7275H24.7117V56.7306H39.9927L47.6333 70.2917L39.9927 83.8528H24.7117L24.7089 83.848H0L3.66511e-06 0H24.7117H39.9927L47.6333 13.5611L39.9927 27.1223H24.7117Z" fill="#3BAB36"/>
</g>
</svg>
