<svg width="89" height="83" viewBox="0 0 89 83" fill="none" xmlns="http://www.w3.org/2000/svg">
<mask id="mask0_202_327" style="mask-type:alpha" maskUnits="userSpaceOnUse" x="0" y="0" width="89" height="83">
<rect width="89" height="83" transform="matrix(-1 0 0 1 89 0)" fill="#D9D9D9"/>
</mask>
<g mask="url(#mask0_202_327)">
<path fill-rule="evenodd" clip-rule="evenodd" d="M29.7036 83.8527H-0.110886L7.15583 70.9551L22.4369 70.9551L29.7036 83.8527ZM31.3542 83.9999L23.7137 70.4388L31.3542 56.8776H46.6353L54.2758 70.4388L46.6353 83.9999H31.3542ZM23.904 41.9264L31.5445 55.4876H46.8256L54.4661 41.9264L46.8256 28.3653L31.5445 28.3653L23.904 41.9264ZM48.0043 56.2432L55.6448 69.8044H70.9259L78.5664 56.2432L70.9259 42.6821L55.6448 42.6821L48.0043 56.2432ZM71.1324 70.9551L78.3992 83.8528H48.5847L55.8514 70.9551H71.1324ZM48.0917 27.6095L55.7322 41.1706L71.0133 41.1706L78.6538 27.6095L71.0133 14.0483L55.7322 14.0483L48.0917 27.6095ZM95.2883 27.1223V27.1254H96.6854L105.025 41.9264L96.6854 56.7275H95.2883V56.7306H80.0073L72.3667 70.2917L80.0073 83.8528H95.2883L95.2911 83.848H120L120 0H95.2883H80.0073L72.3667 13.5611L80.0073 27.1223H95.2883Z" fill="white"/>
</g>
</svg>
