<svg width="56" height="40" viewBox="0 0 56 40" fill="none" xmlns="http://www.w3.org/2000/svg">
<path fill-rule="evenodd" clip-rule="evenodd" d="M8.46159 7.88462C7.0804 7.88462 5.96159 9.00244 5.96159 10.3827V28.4623C5.96159 29.8428 7.0807 30.9615 8.46159 30.9615H48.8462C49.1648 30.9615 49.4231 31.2198 49.4231 31.5385C49.4231 31.8571 49.1648 32.1154 48.8462 32.1154H8.46159C6.4438 32.1154 4.80774 30.4804 4.80774 28.4623V10.3827C4.80774 8.36424 6.4441 6.73077 8.46159 6.73077H45.7693C47.7872 6.73077 49.4231 8.36666 49.4231 10.3846V10.5769H48.2693V10.3846C48.2693 9.00391 47.15 7.88462 45.7693 7.88462H8.46159Z" fill="#3BAB36"/>
<path d="M48.8462 17.4039L47.6924 13.0769L48.8462 13.4616L50.0001 13.0769L48.8462 17.4039Z" fill="#3BAB36"/>
<path fill-rule="evenodd" clip-rule="evenodd" d="M48.2693 12.6611V10.3846H49.4231V12.6611L50.8334 12.191L48.8462 19.6429L46.859 12.191L48.2693 12.6611ZM48.5257 13.9628L48.8462 15.1648L49.1667 13.9628L48.8462 14.0697L48.5257 13.9628Z" fill="#3BAB36"/>
<path d="M27.2749 26.3077C26.6595 26.3077 26.0633 26.2564 25.4864 26.1538C24.9095 26.0513 24.371 25.8974 23.871 25.6923C23.3838 25.4744 22.9415 25.2115 22.5441 24.9038C22.4159 24.8141 22.3261 24.7115 22.2748 24.5962C22.2364 24.468 22.23 24.3526 22.2556 24.25C22.2941 24.1346 22.3518 24.0385 22.4287 23.9615C22.5184 23.8846 22.621 23.8462 22.7364 23.8462C22.8518 23.8333 22.9736 23.8718 23.1018 23.9615C23.6915 24.3974 24.3133 24.718 24.9672 24.9231C25.6338 25.1282 26.4031 25.2308 27.2749 25.2308C28.4928 25.2308 29.4031 24.9936 30.0056 24.5192C30.621 24.0449 30.9287 23.4231 30.9287 22.6538C30.9287 22.0128 30.7043 21.5128 30.2556 21.1538C29.8197 20.7949 29.0954 20.5128 28.0825 20.3077L26.1402 19.9038C24.9223 19.6603 24.0184 19.25 23.4287 18.6731C22.839 18.0962 22.5441 17.3269 22.5441 16.3654C22.5441 15.7756 22.6595 15.2436 22.8902 14.7692C23.121 14.2821 23.4479 13.8654 23.871 13.5192C24.2941 13.1731 24.7941 12.9103 25.371 12.7308C25.9607 12.5385 26.6082 12.4423 27.3133 12.4423C28.1466 12.4423 28.9095 12.5577 29.6018 12.7885C30.3069 13.0192 30.9479 13.3846 31.5249 13.8846C31.6402 13.9744 31.7172 14.0833 31.7556 14.2115C31.7941 14.3269 31.7941 14.4423 31.7556 14.5577C31.7172 14.6603 31.6595 14.7436 31.5825 14.8077C31.5056 14.8718 31.4095 14.9103 31.2941 14.9231C31.1787 14.9231 31.0569 14.8718 30.9287 14.7692C30.3902 14.3333 29.8261 14.0192 29.2364 13.8269C28.6595 13.6218 28.0184 13.5192 27.3133 13.5192C26.5954 13.5192 25.9672 13.6346 25.4287 13.8654C24.9031 14.0962 24.4928 14.4231 24.1979 14.8462C23.9031 15.2692 23.7556 15.7692 23.7556 16.3462C23.7556 17.0128 23.9607 17.5449 24.371 17.9423C24.7813 18.3397 25.4415 18.6282 26.3518 18.8077L28.3133 19.2115C29.6082 19.4808 30.5697 19.8846 31.1979 20.4231C31.8261 20.9487 32.1402 21.6731 32.1402 22.5962C32.1402 23.1474 32.0249 23.6538 31.7941 24.1154C31.5761 24.5641 31.2556 24.9551 30.8325 25.2885C30.4095 25.6218 29.8966 25.8782 29.2941 26.0577C28.7043 26.2244 28.0313 26.3077 27.2749 26.3077Z" fill="#3BAB36"/>
</svg>
