<svg width="56" height="40" viewBox="0 0 56 40" fill="none" xmlns="http://www.w3.org/2000/svg">
<path fill-rule="evenodd" clip-rule="evenodd" d="M8.46159 7.88462C7.0804 7.88462 5.96159 9.00244 5.96159 10.3827V28.4623C5.96159 29.8428 7.0807 30.9615 8.46159 30.9615H48.8462C49.1648 30.9615 49.4231 31.2198 49.4231 31.5385C49.4231 31.8571 49.1648 32.1154 48.8462 32.1154H8.46159C6.4438 32.1154 4.80774 30.4804 4.80774 28.4623V10.3827C4.80774 8.36424 6.4441 6.73077 8.46159 6.73077H45.7693C47.7872 6.73077 49.4231 8.36666 49.4231 10.3846V10.5769H48.2693V10.3846C48.2693 9.00391 47.15 7.88462 45.7693 7.88462H8.46159Z" fill="#3BAB36"/>
<path d="M48.8462 17.4039L47.6924 13.0769L48.8462 13.4616L50.0001 13.0769L48.8462 17.4039Z" fill="#3BAB36"/>
<path fill-rule="evenodd" clip-rule="evenodd" d="M48.2693 12.6611V10.3846H49.4231V12.6611L50.8334 12.191L48.8462 19.6429L46.859 12.191L48.2693 12.6611ZM48.5257 13.9628L48.8462 15.1648L49.1667 13.9628L48.8462 14.0697L48.5257 13.9628Z" fill="#3BAB36"/>
<path d="M7.30774 11.5385C7.30774 10.264 8.34093 9.23077 9.61543 9.23077H31.1539C32.4284 9.23077 33.4616 10.264 33.4616 11.5385V27.3077C33.4616 28.5822 32.4284 29.6154 31.1539 29.6154H9.61543C8.34093 29.6154 7.30774 28.5822 7.30774 27.3077V11.5385Z" fill="#3BAB36" fill-opacity="0.5"/>
<path d="M24.775 26.3077C24.1596 26.3077 23.5634 26.2564 22.9865 26.1538C22.4096 26.0513 21.8711 25.8974 21.3711 25.6923C20.8839 25.4744 20.4416 25.2115 20.0442 24.9038C19.916 24.8141 19.8263 24.7115 19.775 24.5962C19.7365 24.468 19.7301 24.3526 19.7557 24.25C19.7942 24.1346 19.8519 24.0385 19.9288 23.9615C20.0186 23.8846 20.1211 23.8462 20.2365 23.8462C20.3519 23.8333 20.4737 23.8718 20.6019 23.9615C21.1916 24.3974 21.8134 24.718 22.4673 24.9231C23.1339 25.1282 23.9032 25.2308 24.775 25.2308C25.9929 25.2308 26.9032 24.9936 27.5057 24.5192C28.1211 24.0449 28.4288 23.4231 28.4288 22.6538C28.4288 22.0128 28.2045 21.5128 27.7557 21.1538C27.3198 20.7949 26.5955 20.5128 25.5827 20.3077L23.6404 19.9038C22.4224 19.6603 21.5186 19.25 20.9288 18.6731C20.3391 18.0962 20.0442 17.3269 20.0442 16.3654C20.0442 15.7756 20.1596 15.2436 20.3904 14.7692C20.6211 14.2821 20.948 13.8654 21.3711 13.5192C21.7942 13.1731 22.2942 12.9103 22.8711 12.7308C23.4609 12.5385 24.1083 12.4423 24.8134 12.4423C25.6468 12.4423 26.4096 12.5577 27.1019 12.7885C27.807 13.0192 28.4481 13.3846 29.025 13.8846C29.1404 13.9744 29.2173 14.0833 29.2557 14.2115C29.2942 14.3269 29.2942 14.4423 29.2557 14.5577C29.2173 14.6603 29.1596 14.7436 29.0827 14.8077C29.0057 14.8718 28.9096 14.9103 28.7942 14.9231C28.6788 14.9231 28.557 14.8718 28.4288 14.7692C27.8904 14.3333 27.3263 14.0192 26.7365 13.8269C26.1596 13.6218 25.5186 13.5192 24.8134 13.5192C24.0955 13.5192 23.4673 13.6346 22.9288 13.8654C22.4032 14.0962 21.9929 14.4231 21.698 14.8462C21.4032 15.2692 21.2557 15.7692 21.2557 16.3462C21.2557 17.0128 21.4609 17.5449 21.8711 17.9423C22.2814 18.3397 22.9416 18.6282 23.8519 18.8077L25.8134 19.2115C27.1083 19.4808 28.0698 19.8846 28.698 20.4231C29.3263 20.9487 29.6404 21.6731 29.6404 22.5962C29.6404 23.1474 29.525 23.6538 29.2942 24.1154C29.0763 24.5641 28.7557 24.9551 28.3327 25.2885C27.9096 25.6218 27.3968 25.8782 26.7942 26.0577C26.2045 26.2244 25.5314 26.3077 24.775 26.3077Z" fill="white"/>
</svg>
